<?xml version="1.0" encoding="utf-8"?>
<!-- Generator: Adobe Illustrator 16.0.0, SVG Export Plug-In . SVG Version: 6.00 Build 0)  -->
<!DOCTYPE svg PUBLIC "-//W3C//DTD SVG 1.1//EN" "http://www.w3.org/Graphics/SVG/1.1/DTD/svg11.dtd">
<svg version="1.1" id="Layer_1" xmlns="http://www.w3.org/2000/svg" xmlns:xlink="http://www.w3.org/1999/xlink" x="0px" y="0px"
	 width="382.291px" height="615.625px" viewBox="0 0 382.291 615.625" enable-background="new 0 0 382.291 615.625"
	 xml:space="preserve">
<g>
	<path d="M70.639,490.651"/>
	<path d="M242.275,545.396c19.043-10.756,32.015-31.358,31.81-54.745c0.205-35.157-28.095-63.457-62.882-63.626h-36.991V304.217
		L147.579,23.089c0,0-1.233-10.48-6.657-10.357c-5.364-0.123-6.659,10.357-6.659,10.357l-26.633,281.128v122.808h-36.99
		c-34.725,0.169-63.028,28.469-62.884,63.626c-0.145,34.663,28.159,62.966,62.884,62.882c35.095,0.084,63.395-28.219,63.624-62.882
		V337.508h13.316v153.143c0.287,34.663,28.59,62.966,63.624,62.882c0,0,8.685,4.805,10.358,21.454
		c1.849,13.287,17.772,33.324,28.11,33.294c12.27,0.03,11.499-10.759,11.839-14.799c-0.34-14.455-18.835-19.85-18.495-38.469
		L242.275,545.396L242.275,545.396z"/>
	<path d="M211.203,490.651"/>
	<path d="M325.134,294.599c-33.102,0.062-86.823,0.062-92.477,0c-9.247,0.062-12.33,5.456-12.577,9.618
		c0.247,3.544,2.56,10.481,12.577,10.358c10.019,0.123,92.477,0,92.477,0v16.276c-33.102-0.355-86.823-0.355-92.477,0
		c-9.247-0.355-12.33,5.039-12.577,8.878c0.247,3.868,2.56,10.804,12.577,11.096c10.019-0.292,87.299,0,87.299,0
		c6.719-0.292,11.343,7.029,11.096,17.017v213.804c0.247,11.613,9.907,21.271,22.195,21.454l0,0
		c11.544-0.184,21.207-9.841,21.454-21.454V29.748c-0.247-12.103-9.91-21.763-21.454-21.454l0,0h-120.59
		c-9.247-0.309-12.33,5.086-12.577,8.877c0.247,3.915,2.56,10.851,12.577,11.097c10.019-0.247,92.477,0,92.477,0v15.536
		c-33.102,0.015-86.823,0.015-92.477,0c-9.247,0.015-12.33,5.41-12.577,9.618c0.247,3.498,2.56,10.434,12.577,10.357
		c10.019,0.077,92.477,0,92.477,0v15.536c-33.102,0.339-86.823,0.339-92.477,0c-9.247,0.339-12.33,5.733-12.577,9.617
		c0.247,3.823,2.56,10.759,12.577,11.097c10.019-0.338,92.477,0,92.477,0v15.536c-33.102-0.077-86.823-0.077-92.477,0
		c-9.247-0.077-12.33,5.318-12.577,8.877c0.247,4.147,2.56,11.083,12.577,11.098c10.019-0.015,92.477,0,92.477,0v15.536
		c-33.102,0.247-86.823,0.247-92.477,0c-9.247,0.247-12.33,5.641-12.577,9.618c0.247,3.73,2.56,10.666,12.577,10.357
		c10.019,0.309,92.477,0,92.477,0v16.277c-33.102-0.17-86.823-0.17-92.477,0c-9.247-0.17-12.33,5.224-12.577,8.877
		c0.247,4.054,2.56,10.989,12.577,11.098c10.019-0.108,92.477,0,92.477,0v15.536c-33.102,0.153-86.823,0.153-92.477,0
		c-9.247,0.153-12.33,5.548-12.577,9.616c0.247,3.638,2.56,10.574,12.577,10.358c10.019,0.215,92.477,0,92.477,0v16.275
		c-33.102-0.262-86.823-0.262-92.477,0c-9.247-0.262-12.33,5.132-12.577,8.877c0.247,3.961,2.56,10.897,12.577,11.097
		c10.019-0.2,92.477,0,92.477,0"/>
	<path  d="M70.639,527.641c20.647-0.184,37.237-16.773,36.99-36.99c0.247-20.711-16.343-37.301-36.99-36.991
		c-20.281-0.31-36.87,16.28-36.991,36.991C33.769,510.868,50.358,527.458,70.639,527.641L70.639,527.641z"/>
	<path  d="M70.639,490.651"/>
	<path  d="M211.203,527.641c-20.589-0.184-37.179-16.773-36.991-36.99c-0.188-20.711,16.402-37.301,36.991-36.991
		c20.337-0.31,36.927,16.28,36.99,36.991C248.13,510.868,231.54,527.458,211.203,527.641L211.203,527.641z"/>
	<path  d="M211.203,490.651"/>
</g>
</svg>
