<svg xmlns="http://www.w3.org/2000/svg" aria-hidden="true" focusable="false" data-prefix="fas" data-icon="sign-out-alt" role="img" width="512" height="512"><rect id="backgroundrect" width="100%" height="100%" x="0" y="0" fill="none" stroke="none"/><g class="currentLayer" style=""><title>Layer 1</title><path fill="#ffffff" d="M497.606060564518,273 L329.606060564518,441 c-15,15 -41,4.5 -41,-17 v-96 H152.60606056451797 c-13.3,0 -24,-10.7 -24,-24 v-96 c0,-13.3 10.7,-24 24,-24 h136 V88 c0,-21.4 25.9,-32 41,-17 l168,168 c9.3,9.4 9.3,24.6 0,34 zM192.60606056451797,436 v-40 c0,-6.6 -5.4,-12 -12,-12 H96.60606056451797 c-17.7,0 -32,-14.3 -32,-32 V160 c0,-17.7 14.3,-32 32,-32 h84 c6.6,0 12,-5.4 12,-12 V76 c0,-6.6 -5.4,-12 -12,-12 H96.60606056451797 c-53,0 -96,43 -96,96 v192 c0,53 43,96 96,96 h84 c6.6,0 12,-5.4 12,-12 z" id="svg_1" class="selected" fill-opacity="1"/></g></svg>