<svg xmlns="http://www.w3.org/2000/svg" aria-hidden="true" focusable="false" data-prefix="fas" data-icon="wallet" role="img" width="512" height="512" style=""><rect id="backgroundrect" width="100%" height="100%" x="0" y="0" fill="none" stroke="none"/><g class="currentLayer" style=""><title>Layer 1</title><path fill="#ffffff" d="M461.2,126.78787887096405 H80 c-8.84,0 -16,-7.16 -16,-16 s7.16,-16 16,-16 h384 c8.84,0 16,-7.16 16,-16 c0,-26.51 -21.49,-48 -48,-48 H64 C28.65,30.78787887096405 0,59.43787887096405 0,94.78787887096405 v320 c0,35.35 28.65,64 64,64 h397.2 c28.02,0 50.8,-21.53 50.8,-48 V174.78787887096405 c0,-26.47 -22.78,-48 -50.8,-48 zM416,334.78787887096405 c-17.67,0 -32,-14.33 -32,-32 s14.33,-32 32,-32 s32,14.33 32,32 s-14.33,32 -32,32 z" id="svg_1" class="selected" fill-opacity="1" stroke="none" stroke-width="30"/></g></svg>