<?xml version="1.0" encoding="UTF-8"?>
<!DOCTYPE svg PUBLIC "-//W3C//DTD SVG 1.1//EN" "http://www.w3.org/Graphics/SVG/1.1/DTD/svg11.dtd">
<!-- Creator: CorelDRAW X8 -->
<svg xmlns="http://www.w3.org/2000/svg" xml:space="preserve" width="254mm" height="254mm" version="1.1" style="shape-rendering:geometricPrecision; text-rendering:geometricPrecision; image-rendering:optimizeQuality; fill-rule:evenodd; clip-rule:evenodd"
viewBox="0 0 25400 25400"
 xmlns:xlink="http://www.w3.org/1999/xlink">
 <defs>
  <style type="text/css">
   <![CDATA[
    .fil0 {fill:black}
   ]]>
  </style>
 </defs>
 <g id="Слой_x0020_1">
  <metadata id="CorelCorpID_0Corel-Layer"/>
  <path class="fil0" d="M10789 19009c150,29 99,183 367,457 139,142 472,391 232,435 -196,37 -870,-640 -599,-892zm-89 -80l0 0c-47,-98 -33,-264 45,-335 71,55 81,78 64,191 -13,87 -22,121 -109,144zm1508 701l0 0c-6,-131 -65,-160 -84,-288 -19,-125 14,-232 -4,-372 -29,-213 -198,-347 -131,-608 35,-133 95,-184 109,-268 14,-89 -3,-265 -64,-310 -182,-135 -1364,603 -687,1558 134,189 545,365 861,288zm-3062 -16572l0 0c-85,39 -86,21 -117,-51 81,-33 99,-11 117,51zm3527 -846l0 0c103,-53 92,7 135,-100l-252 -20c-33,-154 -3,-185 -187,-164 -62,65 -34,43 -79,116 -45,74 -43,42 -98,92l-3 107c45,25 47,24 84,59 -35,75 -45,60 -101,135 -124,166 -161,65 -318,27 -86,-20 -96,-21 -143,-82 -94,-122 -88,-113 -277,-145 -177,216 -224,365 -256,409 -172,14 -312,-18 -450,-84 179,-303 225,-48 206,-450 -106,-37 -89,-21 -195,-22 -77,0 -110,-32 -172,-56 -267,153 -206,357 -235,566 -76,-95 -50,27 -103,-142 -59,-185 -73,94 -238,-204 -28,-50 -48,-104 -81,-139 -124,-62 -347,128 -483,176 -6,35 -6,80 -21,119 -32,85 7,27 -57,57 -95,45 -24,-28 -79,48 -25,35 -6,33 -44,70 -107,101 -159,-31 -310,184 16,108 64,85 77,225 -151,-15 -168,-103 -344,-30 -133,55 -168,113 -234,206 -70,-11 -146,-59 -234,-85 27,-120 108,-113 150,-261 37,-134 -34,-164 -71,-275l-203 -17c-69,79 -217,187 -234,302 -26,177 98,275 98,423 -98,-4 -150,-110 -310,-215l2 -127c-264,-179 -303,-94 -533,-6 -273,105 -120,224 -454,279 34,114 117,345 241,411l134 59c-61,91 -151,141 -145,267 68,80 80,21 76,127 -103,10 -74,-32 -169,-81 -167,-86 -396,-300 -468,-314 -73,52 -27,52 -95,107l-324 224c13,211 56,46 -1,338 -28,144 -50,78 -77,147 -14,36 -4,136 -11,194 -45,-15 -156,-74 -187,-119 36,-79 99,-62 153,-155 -47,-62 -73,-35 -131,-83 -56,-47 -23,-61 -149,-71 -78,-5 -157,9 -225,5 -181,-13 -57,-129 -283,-24 -102,47 -194,-22 -124,203 137,443 218,209 273,392 -104,95 -126,3 -202,129 -64,104 -56,85 -163,164 28,-81 57,-99 59,-204 -80,-80 -208,-218 -382,-195 -274,286 366,440 -8,523 21,174 -20,144 -96,258 -64,96 -69,142 -143,212 -117,-145 -25,-236 -198,-343 -131,33 -198,80 -243,170 -213,425 70,224 92,444 11,103 -70,155 -116,197 -133,-75 30,-86 -312,-60 -144,10 -122,63 -251,100 -21,78 -55,166 -90,229 60,140 75,69 141,157 82,110 20,52 134,133 92,66 135,270 121,387l-340 62c15,74 135,182 188,227 99,84 216,38 231,198 -192,16 -306,-10 -330,237 -43,448 113,254 169,424l-119 76c-143,88 13,502 -58,675 -29,72 -16,9 -58,75 -160,251 150,344 150,464 -47,143 -118,101 -80,353 37,242 283,272 353,490 66,204 29,155 3,340 -33,230 52,190 143,291 243,267 -306,522 379,799 27,286 -39,291 138,464 224,219 61,209 145,455 125,68 163,7 220,168 -95,254 -178,213 -47,505 59,132 282,153 355,318 -14,44 -124,210 -157,246 50,107 85,166 164,253 65,72 254,49 334,93 47,222 -214,138 -177,374 28,181 218,198 357,221 14,131 -52,88 -65,214 101,178 211,148 409,90 55,95 186,250 155,387l-219 22c7,139 267,197 350,252 75,-63 84,-152 174,-234 10,-435 -95,-185 -88,-761 3,-181 4,-217 -53,-368 -38,-100 -77,-253 -53,-363 126,20 123,57 284,43 9,-243 -156,-246 -256,-298 -28,-213 165,-578 261,-704l515 -442c139,-85 241,-52 359,-130 341,-225 446,-122 715,-264 64,-33 304,-14 407,-3 100,106 16,127 183,217 123,-32 192,-71 293,38 68,74 102,191 161,262 214,258 337,160 627,220 222,46 281,262 409,434 141,187 210,274 556,265 121,32 193,205 254,305 74,124 117,261 173,385 46,104 140,299 155,402 13,88 -7,179 2,268 16,176 202,224 -139,423 -82,49 -224,70 -242,177 103,65 214,43 339,57 -61,141 -308,244 -452,301 -64,25 -112,29 -145,87 28,28 -1,11 42,33l258 100c331,74 162,145 426,109 45,196 51,141 242,152l66 101c139,-40 50,-120 215,-90 1,119 -157,324 -12,346 174,27 138,-87 279,-75 20,187 -171,231 -224,405 79,-22 131,-61 224,-52 10,205 -279,207 -462,282 -333,136 -626,381 -803,709 -359,666 -6,1210 14,1295 -73,44 -136,77 -216,126 -481,296 -1400,702 -1948,880 -241,78 -721,240 -980,268 -202,21 -355,50 -565,63 212,339 1396,-301 1745,-26 92,73 167,197 243,289 148,183 524,770 563,992 -244,183 -1819,793 -2432,946 429,89 2038,-462 2570,-722 169,-83 197,-122 69,-317 -134,-206 -473,-861 -464,-1076 7,-167 228,-406 348,-499 67,-52 75,-58 146,-122l252 -172c196,-125 660,-509 726,-526 522,521 957,613 1691,292 137,179 -13,239 469,253 41,76 19,87 82,181 70,104 157,237 292,147 74,-50 34,-62 156,-80 24,38 88,203 107,267 51,167 57,129 114,240 74,-13 174,-61 213,-104 92,-101 147,-294 321,84 115,249 167,304 400,146 404,-273 427,189 627,170 67,-34 163,-78 189,-131 36,-76 -28,-55 123,-183 520,224 465,-104 539,-245l259 1c133,29 22,228 203,370 95,-26 367,-159 304,-290l-81 -77c-13,-188 -25,-219 155,-237 123,-12 202,-52 255,-118 136,-172 -96,-293 346,-396 52,64 204,346 356,320 71,-12 215,-193 223,-268 38,-358 -276,-143 -195,-441 20,-73 38,-47 92,-86 82,-58 89,-131 166,-161 21,56 19,89 59,141 142,184 152,494 525,147 83,-77 79,-140 107,-275 77,-28 150,-71 205,-103 -58,-142 -91,-44 -24,-222 25,-65 -23,-159 -48,-221l-173 -6c-45,-220 56,-124 186,-277 29,-35 49,-45 79,-69 0,-78 -16,-105 -43,-165l61 -107c237,-14 178,20 337,63 92,-11 390,-322 434,-421 -72,-147 -119,-142 -215,-354 -51,-115 -77,-323 -55,-465 94,-17 99,12 150,59 122,-34 249,-106 383,-162l82 -280c-55,-145 -164,-135 -170,-262 60,-72 40,-24 120,-72l-23 -232c57,-10 189,-37 251,-34 102,4 107,56 150,107 108,-21 146,-137 229,-197l-32 -237c-126,-90 -243,-38 -406,-84 23,-100 207,-181 332,-205l38 -137c62,20 74,50 113,92l202 -30c212,-443 92,-342 7,-489 42,-127 100,-72 99,-222 -1,-101 -47,-152 -68,-231 281,-172 115,-277 34,-356 -197,-191 -163,-184 -24,-385l147 -13c41,-58 66,-104 86,-198 34,-162 52,-92 92,-196 -35,-72 -34,-37 -65,-89 -32,-52 -15,-70 -45,-111 -28,-39 -128,-104 -200,-106 -99,38 -50,63 -178,93 -58,-37 -99,-81 -123,-153 -71,-211 -227,-296 -123,-525l19 -30c187,-46 216,151 468,-98l-42 -514c-40,-131 -242,3 -313,47l-136 -94c18,-84 6,-42 66,-111 -48,-107 -151,-114 -139,-251 63,-130 443,-19 524,-35 91,-43 146,-91 180,-181 -42,-99 -63,-86 -112,-157 -50,-71 -26,-91 -94,-148 -176,-45 -180,66 -334,98 -173,36 -166,113 -329,117 61,-159 179,-211 241,-333 -55,-48 -108,-128 -81,-240 204,-28 298,109 461,-69l-2 -292c-31,-74 -96,-120 -158,-151 -113,-55 -151,-9 -262,1 -139,-134 -54,-133 -283,-300 -207,-151 -286,-110 -404,-169 24,-84 61,-108 153,-135 91,46 168,153 325,121 161,-32 170,-102 256,-181 -45,-186 -20,-184 102,-277 -12,-355 -292,-148 -527,-134 134,-121 96,-130 162,-193l-90 -79 14 -168c-216,-73 -646,50 -736,-630 131,4 467,46 578,-2 197,-86 -73,-374 -120,-438 -225,-5 -257,9 -444,119 -72,43 -180,139 -244,137 -3,-197 169,-323 323,-387 1,-105 -40,-379 -89,-448 -2,-3 -271,-220 -288,-231 -92,59 -56,79 -185,112 -128,32 -115,80 -211,65 -10,-169 0,-231 -159,-348 -59,-44 -133,-43 -202,-86l2 -158c133,-97 293,4 530,-179 -3,-182 -11,-123 -122,-231 -39,-38 -40,-70 -98,-118 -69,29 -79,76 -189,51 -98,-121 -10,-145 -159,-244 -58,-39 -64,-52 -120,-78 -73,-33 -61,-5 -122,-57 -17,-213 97,-101 95,-301l-207 -78c-94,-41 -151,-7 -244,-43 -89,-34 -73,-77 -157,-133 -37,-25 -60,-30 -88,-46 -95,-58 -135,-104 -322,35 -49,36 -32,49 -82,74 -185,93 -124,-130 -154,-272l-325 -9c18,-106 103,-64 102,-315 -149,-50 -86,-75 -171,-119 -38,-20 -186,-62 -224,-70 53,-75 149,-118 42,-236l-130 -116c-71,-76 -287,5 -404,-40 -4,-122 60,-91 41,-310 -11,-125 -255,65 -366,56 -5,-127 51,-243 32,-345 -110,-20 -238,-59 -330,-64 -67,130 -168,233 -280,335l-12 150c-63,2 -127,-58 -182,-82 -91,-41 -17,0 -60,-40 40,-72 50,-62 123,-94 -68,-106 -109,-174 -232,-205 -75,-19 -104,-26 -136,-93 -27,-56 -41,-136 -90,-174 -98,-74 -100,-90 -166,-191l-200 -9c-97,99 -154,156 -204,270 -97,222 -461,8 -463,6 6,-91 -17,-32 31,-79l71 -55 -26 -143c-70,-43 -109,-50 -175,-92 -62,-40 -155,-35 -237,-31 -43,53 -39,31 -76,99 -73,134 -102,230 -287,260 -13,-67 -25,-202 -42,-265 -25,-95 -86,-98 -112,-206zm-6208 16903l0 0 565 -119c-20,115 -168,170 -264,197 -158,45 -264,106 -301,-78zm759 -795l0 0c-61,57 -259,69 -336,84 -133,27 -234,70 -373,51 -152,-486 -48,-335 186,-356 203,-18 445,97 523,221zm-1218 -720l0 0c270,115 124,-6 357,-37 71,-9 227,24 289,45 209,70 703,341 844,490 65,68 111,90 170,164 25,31 43,57 70,86 41,43 53,40 91,83 -25,171 -595,958 -911,1019 -245,48 -585,53 -704,-201 -75,-157 -110,-181 -10,-355 165,-289 146,-185 209,-285 -33,-52 -503,-443 -534,-712 -22,-187 -9,-241 129,-297zm2759 -1994l0 0c-69,-36 -46,-15 -80,-50 -43,-45 -82,47 -169,68 -116,29 -172,29 -207,25 9,-41 -42,-27 -42,-27l-135 62c-11,-12 -19,-22 -25,-30 5,-10 6,-53 -24,-53l-208 15c-11,-7 -18,-16 -23,-24 13,-18 19,-65 -15,-65 -79,0 -74,16 -100,17 -197,6 -102,10 -245,-69 -122,-68 -220,23 -284,-114 45,-68 120,-77 210,-99 -34,-65 -81,-137 -104,-212 570,159 969,77 1527,-32 180,-35 299,-91 472,-140 -30,149 -280,515 -373,590 -62,49 -109,108 -175,138zm-1730 -1691l0 0c20,-170 358,-368 562,-433 644,-206 1012,-87 1591,211 102,53 178,138 281,207 124,83 206,120 233,286 -130,-72 -171,-134 -280,-195l-467 -222c-185,-67 -372,-112 -576,-137 -718,-87 -1155,631 -1344,283zm-1070 3095l0 0c-1,-256 349,-145 446,-96 71,36 103,42 172,74 213,97 451,201 570,-163l104 45c-44,328 -237,406 -540,293 -344,-129 -286,107 -752,-153zm2149 -2736l0 0c-422,-123 -167,-25 -417,31l-122 -109c44,-86 18,-81 278,-81 257,0 606,186 665,331 -163,-33 -230,-121 -404,-172z"/>
 </g>
</svg>
